<mxfile host="Electron" modified="2024-04-10T13:42:33.629Z" agent="Mozilla/5.0 (Windows NT 10.0; Win64; x64) AppleWebKit/537.36 (KHTML, like Gecko) draw.io/24.0.4 Chrome/120.0.6099.109 Electron/28.1.0 Safari/537.36" etag="iIkbiNk4u9cZCNZ9Bmwr" version="24.0.4" type="device">
  <diagram id="23iRSUPoRavnBvh4doch" name="Page-1">
    <mxGraphModel dx="3033" dy="1286" grid="1" gridSize="10" guides="1" tooltips="1" connect="1" arrows="1" fold="1" page="1" pageScale="1" pageWidth="827" pageHeight="1169" math="0" shadow="0">
      <root>
        <mxCell id="0" />
        <mxCell id="1" parent="0" />
        <mxCell id="aGaNoB5cCKPatC-3dfgl-1" value="&lt;h2&gt;Begin&lt;/h2&gt;" style="rounded=1;whiteSpace=wrap;html=1;arcSize=50;fillColor=#b0e3e6;strokeColor=#0e8088;" vertex="1" parent="1">
          <mxGeometry x="379" y="120" width="70" height="30" as="geometry" />
        </mxCell>
        <mxCell id="aGaNoB5cCKPatC-3dfgl-3" value="init graph" style="rounded=1;whiteSpace=wrap;html=1;fillColor=#b0e3e6;strokeColor=#0e8088;" vertex="1" parent="1">
          <mxGeometry x="363" y="180" width="101" height="30" as="geometry" />
        </mxCell>
        <mxCell id="aGaNoB5cCKPatC-3dfgl-4" value="input from" style="shape=parallelogram;perimeter=parallelogramPerimeter;whiteSpace=wrap;html=1;fixedSize=1;fillColor=#b0e3e6;strokeColor=#0e8088;" vertex="1" parent="1">
          <mxGeometry x="354" y="360" width="120" height="30" as="geometry" />
        </mxCell>
        <mxCell id="aGaNoB5cCKPatC-3dfgl-5" value="show verticies" style="rounded=1;whiteSpace=wrap;html=1;fillColor=#b0e3e6;strokeColor=#0e8088;" vertex="1" parent="1">
          <mxGeometry x="363" y="240" width="101" height="30" as="geometry" />
        </mxCell>
        <mxCell id="aGaNoB5cCKPatC-3dfgl-6" value="infinite loop" style="strokeWidth=2;html=1;shape=mxgraph.flowchart.loop_limit;whiteSpace=wrap;fillColor=#d0cee2;strokeColor=#56517e;" vertex="1" parent="1">
          <mxGeometry x="364" y="300" width="100" height="30" as="geometry" />
        </mxCell>
        <mxCell id="aGaNoB5cCKPatC-3dfgl-7" value="" style="strokeWidth=2;html=1;shape=mxgraph.flowchart.loop_limit;whiteSpace=wrap;flipV=1;fillColor=#d0cee2;strokeColor=#56517e;" vertex="1" parent="1">
          <mxGeometry x="364" y="720" width="100" height="30" as="geometry" />
        </mxCell>
        <mxCell id="aGaNoB5cCKPatC-3dfgl-8" value="input to" style="shape=parallelogram;perimeter=parallelogramPerimeter;whiteSpace=wrap;html=1;fixedSize=1;fillColor=#b0e3e6;strokeColor=#0e8088;" vertex="1" parent="1">
          <mxGeometry x="354" y="510" width="120" height="30" as="geometry" />
        </mxCell>
        <mxCell id="aGaNoB5cCKPatC-3dfgl-9" value="&lt;h2&gt;End&lt;/h2&gt;" style="rounded=1;whiteSpace=wrap;html=1;arcSize=50;fillColor=#b0e3e6;strokeColor=#0e8088;" vertex="1" parent="1">
          <mxGeometry x="380" y="810" width="70" height="30" as="geometry" />
        </mxCell>
        <mxCell id="aGaNoB5cCKPatC-3dfgl-10" value="" style="endArrow=none;html=1;rounded=0;entryX=0.5;entryY=0;entryDx=0;entryDy=0;entryPerimeter=0;" edge="1" parent="1" source="aGaNoB5cCKPatC-3dfgl-9" target="aGaNoB5cCKPatC-3dfgl-7">
          <mxGeometry width="50" height="50" relative="1" as="geometry">
            <mxPoint x="351" y="830" as="sourcePoint" />
            <mxPoint x="401" y="780" as="targetPoint" />
          </mxGeometry>
        </mxCell>
        <mxCell id="aGaNoB5cCKPatC-3dfgl-11" value="from == 0" style="rhombus;whiteSpace=wrap;html=1;fillColor=#b0e3e6;strokeColor=#0e8088;" vertex="1" parent="1">
          <mxGeometry x="381" y="420" width="66" height="60" as="geometry" />
        </mxCell>
        <mxCell id="aGaNoB5cCKPatC-3dfgl-12" value="" style="endArrow=classic;html=1;rounded=0;exitX=1;exitY=0.5;exitDx=0;exitDy=0;" edge="1" parent="1" source="aGaNoB5cCKPatC-3dfgl-11">
          <mxGeometry width="50" height="50" relative="1" as="geometry">
            <mxPoint x="410" y="620" as="sourcePoint" />
            <mxPoint x="420" y="790" as="targetPoint" />
            <Array as="points">
              <mxPoint x="560" y="450" />
              <mxPoint x="560" y="790" />
            </Array>
          </mxGeometry>
        </mxCell>
        <mxCell id="aGaNoB5cCKPatC-3dfgl-13" value="true" style="text;html=1;align=center;verticalAlign=middle;resizable=0;points=[];autosize=1;strokeColor=none;fillColor=none;" vertex="1" parent="1">
          <mxGeometry x="470" y="428" width="40" height="30" as="geometry" />
        </mxCell>
        <mxCell id="aGaNoB5cCKPatC-3dfgl-14" value="" style="endArrow=classic;html=1;rounded=0;exitX=0.5;exitY=1;exitDx=0;exitDy=0;entryX=0.5;entryY=0;entryDx=0;entryDy=0;" edge="1" parent="1" source="aGaNoB5cCKPatC-3dfgl-11" target="aGaNoB5cCKPatC-3dfgl-8">
          <mxGeometry width="50" height="50" relative="1" as="geometry">
            <mxPoint x="410" y="620" as="sourcePoint" />
            <mxPoint x="460" y="570" as="targetPoint" />
          </mxGeometry>
        </mxCell>
        <mxCell id="aGaNoB5cCKPatC-3dfgl-15" value="" style="endArrow=classic;html=1;rounded=0;exitX=0.5;exitY=1;exitDx=0;exitDy=0;entryX=0.5;entryY=0;entryDx=0;entryDy=0;" edge="1" parent="1" source="aGaNoB5cCKPatC-3dfgl-4" target="aGaNoB5cCKPatC-3dfgl-11">
          <mxGeometry width="50" height="50" relative="1" as="geometry">
            <mxPoint x="410" y="620" as="sourcePoint" />
            <mxPoint x="460" y="570" as="targetPoint" />
          </mxGeometry>
        </mxCell>
        <mxCell id="aGaNoB5cCKPatC-3dfgl-16" value="to == 0" style="rhombus;whiteSpace=wrap;html=1;fillColor=#b0e3e6;strokeColor=#0e8088;" vertex="1" parent="1">
          <mxGeometry x="381" y="570" width="66" height="60" as="geometry" />
        </mxCell>
        <mxCell id="aGaNoB5cCKPatC-3dfgl-17" value="" style="endArrow=classic;html=1;rounded=0;exitX=0.5;exitY=1;exitDx=0;exitDy=0;entryX=0.5;entryY=0;entryDx=0;entryDy=0;" edge="1" parent="1" source="aGaNoB5cCKPatC-3dfgl-8" target="aGaNoB5cCKPatC-3dfgl-16">
          <mxGeometry width="50" height="50" relative="1" as="geometry">
            <mxPoint x="410" y="620" as="sourcePoint" />
            <mxPoint x="460" y="570" as="targetPoint" />
          </mxGeometry>
        </mxCell>
        <mxCell id="aGaNoB5cCKPatC-3dfgl-18" value="" style="endArrow=classic;html=1;rounded=0;exitX=1;exitY=0.5;exitDx=0;exitDy=0;" edge="1" parent="1" source="aGaNoB5cCKPatC-3dfgl-16">
          <mxGeometry width="50" height="50" relative="1" as="geometry">
            <mxPoint x="410" y="620" as="sourcePoint" />
            <mxPoint x="420" y="770" as="targetPoint" />
            <Array as="points">
              <mxPoint x="540" y="600" />
              <mxPoint x="540" y="770" />
            </Array>
          </mxGeometry>
        </mxCell>
        <mxCell id="aGaNoB5cCKPatC-3dfgl-19" value="false" style="text;html=1;align=center;verticalAlign=middle;resizable=0;points=[];autosize=1;strokeColor=none;fillColor=none;" vertex="1" parent="1">
          <mxGeometry x="365" y="470" width="50" height="30" as="geometry" />
        </mxCell>
        <mxCell id="aGaNoB5cCKPatC-3dfgl-20" value="false" style="text;html=1;align=center;verticalAlign=middle;resizable=0;points=[];autosize=1;strokeColor=none;fillColor=none;" vertex="1" parent="1">
          <mxGeometry x="365" y="620" width="50" height="30" as="geometry" />
        </mxCell>
        <mxCell id="aGaNoB5cCKPatC-3dfgl-21" value="" style="endArrow=classic;html=1;rounded=0;exitX=0.5;exitY=1;exitDx=0;exitDy=0;" edge="1" parent="1" source="aGaNoB5cCKPatC-3dfgl-16">
          <mxGeometry width="50" height="50" relative="1" as="geometry">
            <mxPoint x="380" y="590" as="sourcePoint" />
            <mxPoint x="414" y="660" as="targetPoint" />
          </mxGeometry>
        </mxCell>
        <mxCell id="aGaNoB5cCKPatC-3dfgl-22" value="graph.findBestWay(from, to)" style="shape=process;whiteSpace=wrap;html=1;backgroundOutline=1;fillColor=#b0e3e6;strokeColor=#0e8088;" vertex="1" parent="1">
          <mxGeometry x="301.5" y="660" width="224" height="30" as="geometry" />
        </mxCell>
        <mxCell id="aGaNoB5cCKPatC-3dfgl-23" value="" style="endArrow=classic;html=1;rounded=0;exitX=0.5;exitY=1;exitDx=0;exitDy=0;" edge="1" parent="1" source="aGaNoB5cCKPatC-3dfgl-1" target="aGaNoB5cCKPatC-3dfgl-3">
          <mxGeometry width="50" height="50" relative="1" as="geometry">
            <mxPoint x="400" y="330" as="sourcePoint" />
            <mxPoint x="450" y="280" as="targetPoint" />
          </mxGeometry>
        </mxCell>
        <mxCell id="aGaNoB5cCKPatC-3dfgl-24" value="" style="endArrow=classic;html=1;rounded=0;exitX=0.5;exitY=1;exitDx=0;exitDy=0;entryX=0.5;entryY=0;entryDx=0;entryDy=0;" edge="1" parent="1" source="aGaNoB5cCKPatC-3dfgl-3" target="aGaNoB5cCKPatC-3dfgl-5">
          <mxGeometry width="50" height="50" relative="1" as="geometry">
            <mxPoint x="424" y="160" as="sourcePoint" />
            <mxPoint x="424" y="190" as="targetPoint" />
          </mxGeometry>
        </mxCell>
        <mxCell id="aGaNoB5cCKPatC-3dfgl-25" value="" style="endArrow=classic;html=1;rounded=0;exitX=0.5;exitY=1;exitDx=0;exitDy=0;entryX=0.5;entryY=0;entryDx=0;entryDy=0;entryPerimeter=0;" edge="1" parent="1" source="aGaNoB5cCKPatC-3dfgl-5" target="aGaNoB5cCKPatC-3dfgl-6">
          <mxGeometry width="50" height="50" relative="1" as="geometry">
            <mxPoint x="424" y="220" as="sourcePoint" />
            <mxPoint x="424" y="250" as="targetPoint" />
          </mxGeometry>
        </mxCell>
        <mxCell id="aGaNoB5cCKPatC-3dfgl-26" value="" style="endArrow=classic;html=1;rounded=0;exitX=0.5;exitY=1;exitDx=0;exitDy=0;entryX=0.5;entryY=0;entryDx=0;entryDy=0;exitPerimeter=0;" edge="1" parent="1" source="aGaNoB5cCKPatC-3dfgl-6" target="aGaNoB5cCKPatC-3dfgl-4">
          <mxGeometry width="50" height="50" relative="1" as="geometry">
            <mxPoint x="424" y="280" as="sourcePoint" />
            <mxPoint x="424" y="310" as="targetPoint" />
          </mxGeometry>
        </mxCell>
        <mxCell id="aGaNoB5cCKPatC-3dfgl-28" value="" style="endArrow=classic;html=1;rounded=0;exitX=0.5;exitY=1;exitDx=0;exitDy=0;" edge="1" parent="1" source="aGaNoB5cCKPatC-3dfgl-22" target="aGaNoB5cCKPatC-3dfgl-7">
          <mxGeometry width="50" height="50" relative="1" as="geometry">
            <mxPoint x="300" y="690" as="sourcePoint" />
            <mxPoint x="350" y="640" as="targetPoint" />
          </mxGeometry>
        </mxCell>
        <mxCell id="aGaNoB5cCKPatC-3dfgl-29" value="&lt;h1&gt;Shortest way&lt;/h1&gt;" style="text;html=1;align=center;verticalAlign=middle;resizable=0;points=[];autosize=1;strokeColor=none;fillColor=none;" vertex="1" parent="1">
          <mxGeometry x="328.5" y="30" width="170" height="70" as="geometry" />
        </mxCell>
        <mxCell id="aGaNoB5cCKPatC-3dfgl-30" value="init array of distances" style="rounded=1;whiteSpace=wrap;html=1;fillColor=#b0e3e6;strokeColor=#0e8088;" vertex="1" parent="1">
          <mxGeometry x="-464" y="160" width="101" height="40" as="geometry" />
        </mxCell>
        <mxCell id="aGaNoB5cCKPatC-3dfgl-31" value="&lt;h2&gt;findBestWay(from, to)&lt;/h2&gt;" style="text;whiteSpace=wrap;html=1;" vertex="1" parent="1">
          <mxGeometry x="-508" y="30" width="190" height="60" as="geometry" />
        </mxCell>
        <mxCell id="aGaNoB5cCKPatC-3dfgl-32" value="init array of predecessors" style="rounded=1;whiteSpace=wrap;html=1;fillColor=#b0e3e6;strokeColor=#0e8088;" vertex="1" parent="1">
          <mxGeometry x="-464" y="230" width="101" height="40" as="geometry" />
        </mxCell>
        <mxCell id="aGaNoB5cCKPatC-3dfgl-33" value="init array of&amp;nbsp;&lt;div&gt;visited&lt;/div&gt;" style="rounded=1;whiteSpace=wrap;html=1;fillColor=#b0e3e6;strokeColor=#0e8088;" vertex="1" parent="1">
          <mxGeometry x="-464" y="300" width="101" height="40" as="geometry" />
        </mxCell>
        <mxCell id="aGaNoB5cCKPatC-3dfgl-34" value="" style="endArrow=classic;html=1;rounded=0;exitX=0.5;exitY=1;exitDx=0;exitDy=0;" edge="1" parent="1" source="aGaNoB5cCKPatC-3dfgl-30" target="aGaNoB5cCKPatC-3dfgl-32">
          <mxGeometry width="50" height="50" relative="1" as="geometry">
            <mxPoint x="-240" y="440" as="sourcePoint" />
            <mxPoint x="-190" y="390" as="targetPoint" />
          </mxGeometry>
        </mxCell>
        <mxCell id="aGaNoB5cCKPatC-3dfgl-35" value="&lt;h2&gt;Begin&lt;/h2&gt;" style="rounded=1;whiteSpace=wrap;html=1;arcSize=50;fillColor=#b0e3e6;strokeColor=#0e8088;" vertex="1" parent="1">
          <mxGeometry x="-448" y="100" width="70" height="30" as="geometry" />
        </mxCell>
        <mxCell id="aGaNoB5cCKPatC-3dfgl-36" value="" style="endArrow=classic;html=1;rounded=0;exitX=0.5;exitY=1;exitDx=0;exitDy=0;" edge="1" parent="1" source="aGaNoB5cCKPatC-3dfgl-35" target="aGaNoB5cCKPatC-3dfgl-30">
          <mxGeometry width="50" height="50" relative="1" as="geometry">
            <mxPoint x="-160" y="340" as="sourcePoint" />
            <mxPoint x="-110" y="290" as="targetPoint" />
          </mxGeometry>
        </mxCell>
        <mxCell id="aGaNoB5cCKPatC-3dfgl-37" value="" style="endArrow=classic;html=1;rounded=0;exitX=0.5;exitY=1;exitDx=0;exitDy=0;entryX=0.5;entryY=0;entryDx=0;entryDy=0;" edge="1" parent="1" source="aGaNoB5cCKPatC-3dfgl-32" target="aGaNoB5cCKPatC-3dfgl-33">
          <mxGeometry width="50" height="50" relative="1" as="geometry">
            <mxPoint x="-403" y="210" as="sourcePoint" />
            <mxPoint x="-403" y="240" as="targetPoint" />
          </mxGeometry>
        </mxCell>
        <mxCell id="aGaNoB5cCKPatC-3dfgl-38" value="i != -1" style="strokeWidth=2;html=1;shape=mxgraph.flowchart.loop_limit;whiteSpace=wrap;fillColor=#d0cee2;strokeColor=#56517e;" vertex="1" parent="1">
          <mxGeometry x="-463" y="438" width="100" height="42" as="geometry" />
        </mxCell>
        <mxCell id="aGaNoB5cCKPatC-3dfgl-39" value="i = 0" style="rounded=1;whiteSpace=wrap;html=1;fillColor=#b0e3e6;strokeColor=#0e8088;" vertex="1" parent="1">
          <mxGeometry x="-464" y="370" width="101" height="40" as="geometry" />
        </mxCell>
        <mxCell id="aGaNoB5cCKPatC-3dfgl-40" value="i == -1" style="strokeWidth=2;html=1;shape=mxgraph.flowchart.loop_limit;whiteSpace=wrap;flipV=1;fillColor=#d0cee2;strokeColor=#56517e;" vertex="1" parent="1">
          <mxGeometry x="-464" y="1090" width="100" height="42" as="geometry" />
        </mxCell>
        <mxCell id="aGaNoB5cCKPatC-3dfgl-41" value="visited[i] = true" style="rounded=1;whiteSpace=wrap;html=1;fillColor=#b0e3e6;strokeColor=#0e8088;" vertex="1" parent="1">
          <mxGeometry x="-473" y="510" width="120" height="40" as="geometry" />
        </mxCell>
        <mxCell id="aGaNoB5cCKPatC-3dfgl-42" value="get all neighbors&amp;nbsp;&lt;div&gt;from current vertex&lt;/div&gt;" style="rounded=1;whiteSpace=wrap;html=1;fillColor=#b0e3e6;strokeColor=#0e8088;" vertex="1" parent="1">
          <mxGeometry x="-473" y="585" width="119" height="40" as="geometry" />
        </mxCell>
        <mxCell id="aGaNoB5cCKPatC-3dfgl-43" value="neighbor is&amp;nbsp;&lt;div&gt;present&lt;/div&gt;" style="strokeWidth=2;html=1;shape=mxgraph.flowchart.loop_limit;whiteSpace=wrap;fillColor=#b1ddf0;strokeColor=#10739e;" vertex="1" parent="1">
          <mxGeometry x="-468.5" y="660" width="110" height="40" as="geometry" />
        </mxCell>
        <mxCell id="aGaNoB5cCKPatC-3dfgl-44" value="neighbor isn&#39;t&lt;div&gt;present&lt;/div&gt;" style="strokeWidth=2;html=1;shape=mxgraph.flowchart.loop_limit;whiteSpace=wrap;flipV=1;fillColor=#b1ddf0;strokeColor=#10739e;" vertex="1" parent="1">
          <mxGeometry x="-468" y="940" width="110" height="40" as="geometry" />
        </mxCell>
        <mxCell id="aGaNoB5cCKPatC-3dfgl-45" value="&lt;div&gt;!visited[j] &amp;amp;&amp;amp;&lt;/div&gt;&lt;div&gt;dist[i] + edge &amp;lt; dist[j]&lt;/div&gt;" style="rhombus;whiteSpace=wrap;html=1;fillColor=#b0e3e6;strokeColor=#0e8088;" vertex="1" parent="1">
          <mxGeometry x="-492.5" y="800" width="159" height="80" as="geometry" />
        </mxCell>
        <mxCell id="aGaNoB5cCKPatC-3dfgl-46" value="get index j of neighbor" style="rounded=1;whiteSpace=wrap;html=1;fillColor=#b0e3e6;strokeColor=#0e8088;" vertex="1" parent="1">
          <mxGeometry x="-469.75" y="730" width="113.5" height="40" as="geometry" />
        </mxCell>
        <mxCell id="aGaNoB5cCKPatC-3dfgl-47" value="dist[j] = dist[i] + edge&lt;div&gt;predecessor[j] = i&lt;/div&gt;" style="rounded=1;whiteSpace=wrap;html=1;fillColor=#b0e3e6;strokeColor=#0e8088;" vertex="1" parent="1">
          <mxGeometry x="-660" y="820" width="120" height="40" as="geometry" />
        </mxCell>
        <mxCell id="aGaNoB5cCKPatC-3dfgl-48" value="" style="endArrow=classic;html=1;rounded=0;exitX=0.5;exitY=1;exitDx=0;exitDy=0;entryX=0.5;entryY=1;entryDx=0;entryDy=0;entryPerimeter=0;" edge="1" parent="1" source="aGaNoB5cCKPatC-3dfgl-45" target="aGaNoB5cCKPatC-3dfgl-44">
          <mxGeometry width="50" height="50" relative="1" as="geometry">
            <mxPoint x="-540" y="860" as="sourcePoint" />
            <mxPoint x="-490" y="810" as="targetPoint" />
          </mxGeometry>
        </mxCell>
        <mxCell id="aGaNoB5cCKPatC-3dfgl-49" value="" style="endArrow=classic;html=1;rounded=0;exitX=0;exitY=0.5;exitDx=0;exitDy=0;entryX=1;entryY=0.5;entryDx=0;entryDy=0;" edge="1" parent="1" source="aGaNoB5cCKPatC-3dfgl-45" target="aGaNoB5cCKPatC-3dfgl-47">
          <mxGeometry width="50" height="50" relative="1" as="geometry">
            <mxPoint x="-470" y="910" as="sourcePoint" />
            <mxPoint x="-510" y="850" as="targetPoint" />
          </mxGeometry>
        </mxCell>
        <mxCell id="aGaNoB5cCKPatC-3dfgl-50" value="false" style="text;html=1;align=center;verticalAlign=middle;resizable=0;points=[];autosize=1;strokeColor=none;fillColor=none;" vertex="1" parent="1">
          <mxGeometry x="-420" y="878" width="50" height="30" as="geometry" />
        </mxCell>
        <mxCell id="aGaNoB5cCKPatC-3dfgl-51" value="" style="endArrow=classic;html=1;rounded=0;exitX=0.5;exitY=1;exitDx=0;exitDy=0;" edge="1" parent="1" source="aGaNoB5cCKPatC-3dfgl-47">
          <mxGeometry width="50" height="50" relative="1" as="geometry">
            <mxPoint x="-470" y="890" as="sourcePoint" />
            <mxPoint x="-410" y="920" as="targetPoint" />
            <Array as="points">
              <mxPoint x="-600" y="920" />
            </Array>
          </mxGeometry>
        </mxCell>
        <mxCell id="aGaNoB5cCKPatC-3dfgl-52" value="true" style="text;html=1;align=center;verticalAlign=middle;resizable=0;points=[];autosize=1;strokeColor=none;fillColor=none;" vertex="1" parent="1">
          <mxGeometry x="-530" y="818" width="40" height="30" as="geometry" />
        </mxCell>
        <mxCell id="aGaNoB5cCKPatC-3dfgl-53" value="" style="endArrow=classic;html=1;rounded=0;exitX=0.5;exitY=1;exitDx=0;exitDy=0;entryX=0.5;entryY=0;entryDx=0;entryDy=0;" edge="1" parent="1" source="aGaNoB5cCKPatC-3dfgl-46" target="aGaNoB5cCKPatC-3dfgl-45">
          <mxGeometry width="50" height="50" relative="1" as="geometry">
            <mxPoint x="-470" y="810" as="sourcePoint" />
            <mxPoint x="-420" y="760" as="targetPoint" />
          </mxGeometry>
        </mxCell>
        <mxCell id="aGaNoB5cCKPatC-3dfgl-54" value="" style="endArrow=classic;html=1;rounded=0;exitX=0.5;exitY=1;exitDx=0;exitDy=0;exitPerimeter=0;" edge="1" parent="1" source="aGaNoB5cCKPatC-3dfgl-43" target="aGaNoB5cCKPatC-3dfgl-46">
          <mxGeometry width="50" height="50" relative="1" as="geometry">
            <mxPoint x="-420" y="710" as="sourcePoint" />
            <mxPoint x="-410" y="600" as="targetPoint" />
          </mxGeometry>
        </mxCell>
        <mxCell id="aGaNoB5cCKPatC-3dfgl-55" value="" style="endArrow=classic;html=1;rounded=0;entryX=0.5;entryY=0;entryDx=0;entryDy=0;entryPerimeter=0;exitX=0.5;exitY=1;exitDx=0;exitDy=0;" edge="1" parent="1" source="aGaNoB5cCKPatC-3dfgl-42" target="aGaNoB5cCKPatC-3dfgl-43">
          <mxGeometry width="50" height="50" relative="1" as="geometry">
            <mxPoint x="-400" y="640" as="sourcePoint" />
            <mxPoint x="-404" y="740" as="targetPoint" />
          </mxGeometry>
        </mxCell>
        <mxCell id="aGaNoB5cCKPatC-3dfgl-56" value="" style="endArrow=classic;html=1;rounded=0;exitX=0.5;exitY=1;exitDx=0;exitDy=0;entryX=0.5;entryY=0;entryDx=0;entryDy=0;" edge="1" parent="1" source="aGaNoB5cCKPatC-3dfgl-41" target="aGaNoB5cCKPatC-3dfgl-42">
          <mxGeometry width="50" height="50" relative="1" as="geometry">
            <mxPoint x="-406" y="641" as="sourcePoint" />
            <mxPoint x="-420" y="580" as="targetPoint" />
          </mxGeometry>
        </mxCell>
        <mxCell id="aGaNoB5cCKPatC-3dfgl-57" value="" style="endArrow=classic;html=1;rounded=0;exitX=0.5;exitY=1;exitDx=0;exitDy=0;exitPerimeter=0;entryX=0.5;entryY=0;entryDx=0;entryDy=0;" edge="1" parent="1" source="aGaNoB5cCKPatC-3dfgl-38" target="aGaNoB5cCKPatC-3dfgl-41">
          <mxGeometry width="50" height="50" relative="1" as="geometry">
            <mxPoint x="-480" y="570" as="sourcePoint" />
            <mxPoint x="-430" y="520" as="targetPoint" />
          </mxGeometry>
        </mxCell>
        <mxCell id="aGaNoB5cCKPatC-3dfgl-58" value="" style="endArrow=classic;html=1;rounded=0;exitX=0.5;exitY=1;exitDx=0;exitDy=0;" edge="1" parent="1" source="aGaNoB5cCKPatC-3dfgl-39" target="aGaNoB5cCKPatC-3dfgl-38">
          <mxGeometry width="50" height="50" relative="1" as="geometry">
            <mxPoint x="-403" y="490" as="sourcePoint" />
            <mxPoint x="-403" y="530" as="targetPoint" />
          </mxGeometry>
        </mxCell>
        <mxCell id="aGaNoB5cCKPatC-3dfgl-59" value="get min index unvisited vertex in&amp;nbsp;&lt;div&gt;dist array&lt;/div&gt;" style="rounded=1;whiteSpace=wrap;html=1;fillColor=#b0e3e6;strokeColor=#0e8088;" vertex="1" parent="1">
          <mxGeometry x="-470" y="1010" width="113" height="50" as="geometry" />
        </mxCell>
        <mxCell id="aGaNoB5cCKPatC-3dfgl-60" value="" style="endArrow=classic;html=1;rounded=0;exitX=0.5;exitY=0;exitDx=0;exitDy=0;exitPerimeter=0;entryX=0.5;entryY=0;entryDx=0;entryDy=0;" edge="1" parent="1" source="aGaNoB5cCKPatC-3dfgl-44" target="aGaNoB5cCKPatC-3dfgl-59">
          <mxGeometry width="50" height="50" relative="1" as="geometry">
            <mxPoint x="-380" y="1020" as="sourcePoint" />
            <mxPoint x="-330" y="970" as="targetPoint" />
          </mxGeometry>
        </mxCell>
        <mxCell id="aGaNoB5cCKPatC-3dfgl-61" value="" style="endArrow=classic;html=1;rounded=0;exitX=0.5;exitY=1;exitDx=0;exitDy=0;entryX=0.5;entryY=1;entryDx=0;entryDy=0;entryPerimeter=0;" edge="1" parent="1" source="aGaNoB5cCKPatC-3dfgl-59" target="aGaNoB5cCKPatC-3dfgl-40">
          <mxGeometry width="50" height="50" relative="1" as="geometry">
            <mxPoint x="-380" y="1120" as="sourcePoint" />
            <mxPoint x="-330" y="1070" as="targetPoint" />
          </mxGeometry>
        </mxCell>
        <mxCell id="aGaNoB5cCKPatC-3dfgl-63" value="&lt;h2&gt;End&lt;/h2&gt;" style="rounded=1;whiteSpace=wrap;html=1;arcSize=50;fillColor=#b0e3e6;strokeColor=#0e8088;" vertex="1" parent="1">
          <mxGeometry x="-448" y="1240" width="70" height="30" as="geometry" />
        </mxCell>
        <mxCell id="aGaNoB5cCKPatC-3dfgl-64" value="form and return&amp;nbsp;&lt;div&gt;finalize string&lt;/div&gt;" style="rounded=1;whiteSpace=wrap;html=1;fillColor=#b0e3e6;strokeColor=#0e8088;" vertex="1" parent="1">
          <mxGeometry x="-463" y="1169" width="100" height="40" as="geometry" />
        </mxCell>
        <mxCell id="aGaNoB5cCKPatC-3dfgl-65" value="" style="endArrow=classic;html=1;rounded=0;exitX=0.5;exitY=0;exitDx=0;exitDy=0;exitPerimeter=0;entryX=0.5;entryY=0;entryDx=0;entryDy=0;" edge="1" parent="1" source="aGaNoB5cCKPatC-3dfgl-40" target="aGaNoB5cCKPatC-3dfgl-64">
          <mxGeometry width="50" height="50" relative="1" as="geometry">
            <mxPoint x="-350" y="1050" as="sourcePoint" />
            <mxPoint x="-300" y="1000" as="targetPoint" />
          </mxGeometry>
        </mxCell>
        <mxCell id="aGaNoB5cCKPatC-3dfgl-66" value="" style="endArrow=classic;html=1;rounded=0;exitX=0.5;exitY=1;exitDx=0;exitDy=0;" edge="1" parent="1" source="aGaNoB5cCKPatC-3dfgl-64" target="aGaNoB5cCKPatC-3dfgl-63">
          <mxGeometry width="50" height="50" relative="1" as="geometry">
            <mxPoint x="-350" y="1180" as="sourcePoint" />
            <mxPoint x="-300" y="1130" as="targetPoint" />
          </mxGeometry>
        </mxCell>
        <mxCell id="aGaNoB5cCKPatC-3dfgl-67" value="" style="endArrow=classic;html=1;rounded=0;exitX=0.5;exitY=1;exitDx=0;exitDy=0;entryX=0.5;entryY=0;entryDx=0;entryDy=0;" edge="1" parent="1" source="aGaNoB5cCKPatC-3dfgl-33" target="aGaNoB5cCKPatC-3dfgl-39">
          <mxGeometry width="50" height="50" relative="1" as="geometry">
            <mxPoint x="-250" y="450" as="sourcePoint" />
            <mxPoint x="-200" y="400" as="targetPoint" />
          </mxGeometry>
        </mxCell>
      </root>
    </mxGraphModel>
  </diagram>
</mxfile>
